<svg xmlns="http://www.w3.org/2000/svg" xmlns:xlink="http://www.w3.org/1999/xlink" viewBox="0 0 196.99 196.99"><defs><style>.a{fill:url(#a);}.b{fill:#3c3c3b;}.c{fill:#afca0b;}.d{fill:#fff;}</style><radialGradient id="a" cx="98.5" cy="98.5" r="98.5" gradientUnits="userSpaceOnUse"><stop offset="0" stop-color="#afca0b"/><stop offset="1" stop-color="#90ae00"/></radialGradient></defs><rect class="a" width="196.99" height="196.99"/><circle class="b" cx="98.5" cy="98.73" r="72.27"/><circle class="b" cx="136.5" cy="136.61" r="29.09"/><circle class="c" cx="97.94" cy="94.25" r="68.25"/><path class="d" d="M97.94,166.75a72.5,72.5,0,1,1,72.5-72.5A72.58,72.58,0,0,1,97.94,166.75Zm0-136.5a64,64,0,1,0,64,64A64.07,64.07,0,0,0,97.94,30.25Z"/><circle class="d" cx="134.5" cy="132.22" r="30.14"/><path class="b" d="M130,140.6l-11.22-6.84a5.51,5.51,0,0,1-1-.78,5.7,5.7,0,0,1,1-9L134,114.61a6.24,6.24,0,0,1,6.11-.21,6.31,6.31,0,0,1,1.4,1,5.59,5.59,0,0,1,1.75,4.11,4.88,4.88,0,0,1-1.55,3.57l-2.52,2.41L137.73,124l2.52-2.42a2.75,2.75,0,0,0,.89-2,3.56,3.56,0,0,0-1.11-2.59,3.73,3.73,0,0,0-.92-.65,4.09,4.09,0,0,0-4,.14l-15.2,9.32a3.66,3.66,0,0,0-1.77,3.1,3.56,3.56,0,0,0,1.11,2.59,3.46,3.46,0,0,0,.65.49l11.23,6.88Z"/><path class="c" d="M131.8,150.73a6.24,6.24,0,0,1-2.87-.7,6.61,6.61,0,0,1-1.4-1,5.65,5.65,0,0,1-1.76-4.13,4.94,4.94,0,0,1,1.55-3.56l3.27-3.12a3.63,3.63,0,0,0,.17-5.11l-.17-.17-3.26-3.11a4.9,4.9,0,0,1-1.55-3.58,5.71,5.71,0,0,1,3.15-5.09,6,6,0,0,1,6,.18l15.3,9.35a7,7,0,0,1,1,.78,5.69,5.69,0,0,1,.16,8,5.5,5.5,0,0,1-1.17.93L135,149.82A6.14,6.14,0,0,1,131.8,150.73Zm0-28.18a3.91,3.91,0,0,0-1.89.49,3.61,3.61,0,0,0-2,3.22h0a2.85,2.85,0,0,0,.89,2l3.27,3.11a5.73,5.73,0,0,1,.23,8.1l-.23.22-3.27,3.12a2.9,2.9,0,0,0-.89,2,3.51,3.51,0,0,0,1.12,2.58,5,5,0,0,0,.91.66,4.09,4.09,0,0,0,4-.15l15.21-9.33a3.6,3.6,0,0,0,1.78-3.08,3.53,3.53,0,0,0-1.12-2.59,4.14,4.14,0,0,0-.66-.51l-15.32-9.34A3.76,3.76,0,0,0,131.8,122.55Z"/><path class="b" d="M130,140.6l-11.22-6.84a5.51,5.51,0,0,1-1-.78,5.7,5.7,0,0,1,1-9L134,114.61a6.24,6.24,0,0,1,6.11-.21,6.31,6.31,0,0,1,1.4,1,5.59,5.59,0,0,1,1.75,4.11,4.88,4.88,0,0,1-1.55,3.57l-2.52,2.41L137.73,124l2.52-2.42a2.75,2.75,0,0,0,.89-2,3.56,3.56,0,0,0-1.11-2.59,3.73,3.73,0,0,0-.92-.65,4.09,4.09,0,0,0-4,.14l-15.2,9.32a3.66,3.66,0,0,0-1.77,3.1,3.56,3.56,0,0,0,1.11,2.59,3.46,3.46,0,0,0,.65.49l11.23,6.88Z"/><path class="c" d="M131.8,150.73a6.24,6.24,0,0,1-2.87-.7,6.61,6.61,0,0,1-1.4-1,5.65,5.65,0,0,1-1.76-4.13,4.94,4.94,0,0,1,1.55-3.56l3.27-3.12a3.63,3.63,0,0,0,.17-5.11l-.17-.17-3.26-3.11a4.9,4.9,0,0,1-1.55-3.58,5.71,5.71,0,0,1,3.15-5.09,6,6,0,0,1,6,.18l15.3,9.35a7,7,0,0,1,1,.78,5.69,5.69,0,0,1,.16,8,5.5,5.5,0,0,1-1.17.93L135,149.82A6.14,6.14,0,0,1,131.8,150.73Zm0-28.18a3.91,3.91,0,0,0-1.89.49,3.61,3.61,0,0,0-2,3.22h0a2.85,2.85,0,0,0,.89,2l3.27,3.11a5.73,5.73,0,0,1,.23,8.1l-.23.22-3.27,3.12a2.9,2.9,0,0,0-.89,2,3.51,3.51,0,0,0,1.12,2.58,5,5,0,0,0,.91.66,4.09,4.09,0,0,0,4-.15l15.21-9.33a3.6,3.6,0,0,0,1.78-3.08,3.53,3.53,0,0,0-1.12-2.59,4.14,4.14,0,0,0-.66-.51l-15.32-9.34A3.76,3.76,0,0,0,131.8,122.55Z"/><rect class="b" x="57.9" y="55.01" width="24.58" height="24.58" rx="6.61"/><rect class="b" x="85.65" y="55.01" width="24.58" height="24.58" rx="6.61"/><rect class="b" x="57.9" y="82.94" width="24.58" height="24.58" rx="6.61"/><rect class="b" x="85.65" y="82.94" width="24.58" height="24.58" rx="6.61"/><rect class="b" x="57.9" y="110.87" width="24.58" height="24.58" rx="6.61"/><rect class="b" x="113.39" y="55.01" width="24.58" height="24.58" rx="6.61"/></svg>